<svg id="Layer_1" data-name="Layer 1" xmlns="http://www.w3.org/2000/svg" viewBox="0 0 7.5 15"><title>Artboard 11111</title><g id="menu---header---footer"><g id="mobile_libero_cerca" data-name="mobile libero cerca"><g id="Group"><path id="Fill-6-Copy-2" d="M6,2.53c.44,0,.89,0,1.34,0H7.5V.11C7.26.09,7,0,6.76,0c-.46,0-.91,0-1.37,0A3.26,3.26,0,0,0,3.46.63a3,3,0,0,0-1.16,2,7.45,7.45,0,0,0-.08,1c0,.54,0,1.08,0,1.63v.2H0v2.7H2.2V15H4.89V8.22h2.2l.34-2.71H4.88s0-1.34,0-1.92A1,1,0,0,1,6,2.53"/></g></g></g></svg>