<svg id="Layer_1" data-name="Layer 1" xmlns="http://www.w3.org/2000/svg" viewBox="0 0 15 11.25"><title>Artboard 11111</title><g id="menu---header---footer"><g id="mobile_libero_cerca" data-name="mobile libero cerca"><g id="Group"><path id="Fill-9-Copy-2" d="M4.55,8.8a3.06,3.06,0,0,1-2.87-2A3.31,3.31,0,0,0,3,6.8l0,0a3.08,3.08,0,0,1-2-1.3A2.6,2.6,0,0,1,.59,4,3.24,3.24,0,0,0,2,4.31,2.86,2.86,0,0,1,.7,2.58,2.63,2.63,0,0,1,1,.53a9.09,9.09,0,0,0,6.36,3c0-.11,0-.21,0-.31a2.58,2.58,0,0,1,.45-1.86A3,3,0,0,1,9.87,0a3.17,3.17,0,0,1,2.7.79.16.16,0,0,0,.16,0A6.54,6.54,0,0,0,14.53.24l0,0h0a3,3,0,0,1-1.32,1.55A6.3,6.3,0,0,0,15,1.34h0l-.35.43a5.86,5.86,0,0,1-1.12,1,.09.09,0,0,0-.05.09,7.17,7.17,0,0,1-.06,1.26,7.89,7.89,0,0,1-.79,2.53A8.18,8.18,0,0,1,11,8.88a8.44,8.44,0,0,1-4.24,2.18A10,10,0,0,1,5,11.25,9.27,9.27,0,0,1,.07,10L0,10a6.71,6.71,0,0,0,3.08-.39A6.24,6.24,0,0,0,4.55,8.8"/></g></g></g></svg>