<?xml version="1.0" encoding="UTF-8" standalone="no"?>
<svg width="22px" height="22px" viewBox="0 0 22 22" version="1.1" xmlns="http://www.w3.org/2000/svg" xmlns:xlink="http://www.w3.org/1999/xlink" xmlns:sketch="http://www.bohemiancoding.com/sketch/ns">
    <!-- Generator: Sketch 3.3.2 (12043) - http://www.bohemiancoding.com/sketch -->
    <title>Artboard</title>
    <desc>Created with Sketch.</desc>
    <defs></defs>
    <g id="Page-1" stroke="none" stroke-width="1" fill="none" fill-rule="evenodd" sketch:type="MSPage">
        <g id="Artboard" sketch:type="MSArtboardGroup" fill="#57A0D7">
            <path d="M11,22 C4.925,22 0,17.075 0,11 C0,4.925 4.925,0 11,0 C17.075,0 22,4.925 22,11 C22,17.075 17.075,22 11,22 L11,22 Z M11,2 C6.029,2 2,6.029 2,11 C2,15.971 6.029,20 11,20 C15.971,20 20,15.971 20,11 C20,6.029 15.971,2 11,2 L11,2 Z M15,12 L12.723,12 C12.376,12.596 11.739,13 11,13 C9.896,13 9,12.104 9,11 C9,10.262 9.404,9.624 10,9.277 L10,5 C10,4.447 10.447,4 11,4 C11.553,4 12,4.447 12,5 L12,9.277 C12.3,9.452 12.551,9.701 12.727,10 L15,10 C15.553,10 16,10.447 16,11 C16,11.553 15.553,12 15,12 L15,12 Z" id="Shape" sketch:type="MSShapeGroup"></path>
        </g>
    </g>
</svg>